# xmcd CD database file
#
# Track frame offsets:
#	150
#	16558
#	37736
#	50870
#	83517
#	104356
#	127177
#	142874
#	159316
#	175565
#	194571
#	213599
#
# Disc length: 3151 seconds
#
# Revision: 0
# Processed by: cddbd v1.5.2PL0 Copyright (c) Steve Scherf et al.
# Submitted via: CDex 1.77
#
DISCID=950c4d0c
DTITLE=Duo Clarino - In a mellow tone - A tribute to Duke Ellington
DYEAR=2016
DGENRE=Jazz
TTITLE0=Satin doll
TTITLE1=In a mellow tone
TTITLE2=Cottontail
TTITLE3=Prelude to a kiss
TTITLE4=I let a song go out of my heart
TTITLE5=Mood indigo
TTITLE6=I don't mean a thing
TTITLE7=Black and tan fantasy
TTITLE8=I'm beginning to see the light
TTITLE9=Just squeezed me
TTITLE10=Caravan
TTITLE11=Sophisticated lady
EXTD=YEAR: 2016
EXTT0=
EXTT1=
EXTT2=
EXTT3=
EXTT4=
EXTT5=
EXTT6=
EXTT7=
EXTT8=
EXTT9=
EXTT10=
EXTT11=
PLAYORDER=
